<?xml version="1.0" encoding="utf-8"?>
<!-- Generator: Adobe Illustrator 21.0.0, SVG Export Plug-In . SVG Version: 6.00 Build 0)  -->
<svg version="1.1" id="Layer_1" xmlns="http://www.w3.org/2000/svg" xmlns:xlink="http://www.w3.org/1999/xlink" x="0px" y="0px"
	 viewBox="0 0 465.4 445.9" style="enable-background:new 0 0 465.4 445.9;" xml:space="preserve">
<style type="text/css">
	.st0{fill:#4D4D4D;}
</style>
<g>
	<path class="st0" d="M405.4,0L223.2,0.4v0.1h-28.5l-32.8,0.1V0.4h-20.3v0.1L60,0.7c-33,0-60,26.9-60,60v213.9c0,33.1,26.9,60,60,60
		h61.5v101.2c0,4.1,2.6,7.9,6.5,9.4c1.2,0.4,2.4,0.7,3.6,0.7c2.8,0,5.5-1.2,7.5-3.3l98.2-108l168.2-0.7c33.1,0,60-26.9,60-60V60
		C465.4,26.9,438.5,0,405.4,0z M445.2,273.9c0,21.9-17.8,39.8-39.8,39.8l-172.7,0.7c-2.9,0-5.6,1.2-7.4,3.3l-83.6,91.9v-85.1
		c0-5.6-4.5-10.1-10.1-10.1H60c-21.9,0-39.7-17.8-39.7-39.8V60.7c0-21.9,17.8-39.8,39.8-39.8l91.7-0.2l253.6-0.5
		c21.9,0,39.8,17.8,39.8,39.8V273.9z"/>
	<g>
		<path class="st0" d="M214.9,213.9c-0.8-2.2-1.4-5.1-2-8.6c-0.6-3.5-0.9-7-0.9-10.5c0-5.5,1.1-10.4,3.3-14.8
			c2.2-4.4,4.9-8.5,8.1-12.3c3.2-3.8,6.8-7.5,10.6-11.1c3.8-3.5,7.4-7.1,10.6-10.7c3.2-3.6,5.9-7.4,8.1-11.4c2.2-4,3.3-8.3,3.3-13.1
			c0-4.1-0.8-7.7-2.4-10.9c-1.6-3.2-3.7-5.8-6.5-7.9s-5.9-3.7-9.5-4.8c-3.6-1.1-7.4-1.6-11.4-1.6c-14.4,0-26.9,5.7-37.4,17V90.8
			c13-8.2,26.5-12.3,40.5-12.3c6.5,0,12.6,0.9,18.3,2.6c5.7,1.7,10.7,4.2,15,7.6c4.3,3.4,7.7,7.6,10.2,12.6s3.7,10.9,3.7,17.5
			c0,6.3-1.1,11.9-3.3,16.9c-2.2,4.9-5,9.5-8.4,13.6c-3.4,4.1-7,8-10.9,11.6c-3.9,3.6-7.6,7.1-10.9,10.7s-6.2,7.2-8.4,11.1
			c-2.2,3.8-3.3,8-3.3,12.6c0,3.9,0.5,7.5,1.4,10.7c0.9,3.2,1.9,5.9,2.8,8.1H214.9z M226.4,267.1c-3.7,0-7.1-1.4-10-4.1
			c-2.8-2.7-4.2-6-4.2-10c0-4,1.4-7.3,4.2-10c2.8-2.8,6.1-4.2,10-4.2s7.2,1.4,10,4.2c2.8,2.6,4.2,6,4.2,10c0,3.9-1.4,7.2-4.2,10
			C233.5,265.7,230.2,267.1,226.4,267.1z"/>
	</g>
</g>
</svg>
