<?xml version="1.0" encoding="utf-8"?>
<!-- Generator: Adobe Illustrator 21.0.0, SVG Export Plug-In . SVG Version: 6.00 Build 0)  -->
<svg version="1.1" id="Layer_1" xmlns="http://www.w3.org/2000/svg" xmlns:xlink="http://www.w3.org/1999/xlink" x="0px" y="0px"
	 viewBox="0 0 495.8 455.1" style="enable-background:new 0 0 495.8 455.1;" xml:space="preserve">
<style type="text/css">
	.st0{fill:#4D4D4D;}
</style>
<g>
	<path class="st0" d="M82.6,190H190c4.6,0,8.3-3.7,8.3-8.2c0-4.6-3.7-8.3-8.3-8.3H82.6c-4.6,0-8.3,3.7-8.3,8.3
		C74.4,186.4,78.1,190,82.6,190L82.6,190z M82.6,190"/>
	<path class="st0" d="M297.5,223.1H82.6c-4.6,0-8.3,3.7-8.3,8.2c0,4.6,3.7,8.3,8.3,8.3h214.8c4.6,0,8.3-3.7,8.3-8.3
		C305.7,226.8,302,223.1,297.5,223.1L297.5,223.1z M297.5,223.1"/>
	<path class="st0" d="M297.5,272.7H82.6c-4.6,0-8.3,3.7-8.3,8.3c0,4.6,3.7,8.3,8.3,8.3h214.8c4.6,0,8.3-3.7,8.3-8.3
		C305.7,276.4,302,272.7,297.5,272.7L297.5,272.7z M297.5,272.7"/>
	<path class="st0" d="M446.8,0.6L164.7,0c-27,0-49,22-49,49v42.4L49,91.5c-27,0-49,22-49,49v174.7c0,27,22,49,49,49h50.2v82.6
		c0,3.4,2.1,6.5,5.3,7.7c1,0.4,2,0.6,2.9,0.6c2.3,0,4.5-1,6.1-2.7l80.2-88.2l137.4-0.6c27,0,49-21.9,49-49v-0.9l43.5,47.8
		c1.6,1.7,3.8,2.7,6.1,2.7c1,0,2-0.2,2.9-0.6c3.2-1.2,5.3-4.3,5.3-7.7v-82.6h8.9c27,0,49-22,49-49V49.6
		C495.8,22.6,473.8,0.6,446.8,0.6L446.8,0.6z M363.6,314.6c0,17.9-14.6,32.5-32.5,32.5L190,347.6c-2.3,0-4.6,1-6.1,2.7l-68.3,75.1
		v-69.5c0-4.6-3.7-8.3-8.3-8.3H49c-17.9,0-32.4-14.6-32.4-32.5V140.5c0-17.9,14.6-32.5,32.5-32.5l74.9-0.2l207.1-0.4
		c17.9,0,32.5,14.6,32.5,32.5V314.6z M479.2,224.2c0,17.9-14.6,32.5-32.4,32.5h-17.1c-4.6,0-8.3,3.7-8.3,8.3v69.5l-41.3-45.4V139.9
		c0-27-22-49-49-49l-198.9,0.4V49c0-17.9,14.6-32.5,32.4-32.5l282.1,0.6h0c17.9,0,32.5,14.6,32.5,32.5L479.2,224.2L479.2,224.2z
		 M479.2,224.2"/>
</g>
</svg>
