<?xml version="1.0" encoding="utf-8"?>
<!-- Generator: Adobe Illustrator 21.0.0, SVG Export Plug-In . SVG Version: 6.00 Build 0)  -->
<svg version="1.1" id="Layer_1" xmlns="http://www.w3.org/2000/svg" xmlns:xlink="http://www.w3.org/1999/xlink" x="0px" y="0px"
	 viewBox="0 0 466.6 381.1" style="enable-background:new 0 0 466.6 381.1;" xml:space="preserve">
<style type="text/css">
	.st0{fill:#4D4D4D;}
</style>
<g>
	<path class="st0" d="M447.1,124.4h-19.4v-70H206.2L167.3,0h-146C9.5,0,0,9.5,0,21.3V361h0c0,4.4,1.3,8.7,4.1,12.2
		c3.8,5,9.6,7.8,15.8,7.8H368c9,0,16.9-6,19.1-14.1l79.5-218.1v-1.4C466.6,134.2,458.4,124.4,447.1,124.4L447.1,124.4z M412.2,70
		v54.5H350v-23.4c0-4.3-3.5-7.7-7.8-7.7c-4.3,0-7.8,3.5-7.8,7.7v23.4h-38.9v-23.4c0-4.3-3.5-7.7-7.7-7.7c-4.3,0-7.8,3.5-7.8,7.7
		v23.4h-38.9v-23.4c0-4.3-3.5-7.7-7.8-7.7c-4.3,0-7.8,3.5-7.8,7.7v23.4h-38.9v-23.4c0-4.3-3.5-7.7-7.8-7.7c-4.3,0-7.7,3.5-7.7,7.7
		v23.4h-38.9v-23.4c0-4.3-3.5-7.7-7.8-7.7c-4.3,0-7.8,3.5-7.8,7.7v23.4H99c-1.1,0-2.2,0.1-3.3,0.3c-7.6,1.3-13.9,6.8-15.8,13.8
		l-2.5,6.8L38.9,251.2V116.7h46.7V70H412.2z M49.9,101.1L70,81v20.1H49.9z M15.6,21.3c0-3.2,2.5-5.7,5.7-5.7h138l27.8,38.9H74.5
		l-51.2,51.2V293l-7.7,21.2V21.3z M372.3,362.3c-0.5,1.9-2.3,3.3-4.3,3.3H19.9c-1.9,0-3-1.1-3.5-1.8c-0.5-0.7-1.3-2-1-3.1l7.8-21.5
		l71.2-195.3l0.2-0.7c0.5-1.9,2.2-3.3,4.2-3.3h348.1c3,0,3.7,4.3,3.9,6.4L372.3,362.3z M372.3,362.3"/>
</g>
</svg>
